<?xml version="1.0" standalone="no"?>
<!DOCTYPE svg PUBLIC "-//W3C//DTD SVG 20010904//EN"
 "http://www.w3.org/TR/2001/REC-SVG-20010904/DTD/svg10.dtd">
<svg version="1.0" xmlns="http://www.w3.org/2000/svg"
 width="264.000000pt" height="247.000000pt" viewBox="0 0 264.000000 247.000000"
 preserveAspectRatio="xMidYMid meet">

<g transform="translate(0.000000,247.000000) scale(0.100000,-0.100000)"
fill="#000000" stroke="none">
<path d="M908 2223 c6 -2 18 -2 25 0 6 3 1 5 -13 5 -14 0 -19 -2 -12 -5z"/>
<path d="M1534 2128 l-29 -33 33 29 c17 17 32 31 32 33 0 8 -8 1 -36 -29z"/>
<path d="M692 1980 c0 -14 2 -19 5 -12 2 6 2 18 0 25 -3 6 -5 1 -5 -13z"/>
<path d="M692 1915 c0 -16 2 -22 5 -12 2 9 2 23 0 30 -3 6 -5 -1 -5 -18z"/>
<path d="M1231 1884 c0 -11 3 -14 6 -6 3 7 2 16 -1 19 -3 4 -6 -2 -5 -13z"/>
<path d="M1412 1820 c0 -19 2 -27 5 -17 2 9 2 25 0 35 -3 9 -5 1 -5 -18z"/>
<path d="M2227 1669 c-136 -21 -258 -180 -260 -339 -2 -121 66 -195 177 -195
76 0 124 22 189 87 73 73 102 143 102 248 0 71 -4 91 -23 121 -40 66 -100 91
-185 78z"/>
<path d="M344 1656 c-124 -54 -124 -281 0 -423 44 -50 144 -103 197 -103 68 0
133 39 164 100 64 126 -33 355 -178 420 -49 23 -138 26 -183 6z"/>
<path d="M1495 1600 c10 -11 20 -20 23 -20 3 0 -3 9 -13 20 -10 11 -20 20 -23
20 -3 0 3 -9 13 -20z"/>
<path d="M1497 1369 c7 -7 15 -10 18 -7 3 3 -2 9 -12 12 -14 6 -15 5 -6 -5z"/>
<path d="M1750 1226 c0 -2 8 -10 18 -17 15 -13 16 -12 3 4 -13 16 -21 21 -21
13z"/>
<path d="M779 1073 c-13 -16 -12 -17 4 -4 16 13 21 21 13 21 -2 0 -10 -8 -17
-17z"/>
<path d="M1950 661 l0 -351 40 0 c23 0 54 7 69 14 42 22 89 81 102 128 13 51
6 145 -17 196 -8 21 -21 51 -28 67 -29 72 -113 231 -138 263 l-28 35 0 -352z"/>
<path d="M656 886 c-22 -38 -59 -115 -83 -172 -74 -174 -69 -280 16 -357 35
-31 95 -56 107 -44 2 2 3 148 2 323 l-3 319 -39 -69z"/>
<path d="M718 303 c7 -3 16 -2 19 1 4 3 -2 6 -13 5 -11 0 -14 -3 -6 -6z"/>
</g>
</svg>
